<svg width="150" height="41" viewBox="0 0 150 41" fill="none" xmlns="http://www.w3.org/2000/svg">
<path fill-rule="evenodd" clip-rule="evenodd" d="M21.9624 20.803C21.9713 20.8499 21.9713 20.8979 21.9624 20.9447C21.9639 21.6805 21.8288 22.4101 21.5639 23.0965C21.2984 23.7516 20.9141 24.352 20.4305 24.8675C19.933 25.4041 19.3301 25.8322 18.6595 26.1249C17.9371 26.4428 17.1552 26.6029 16.366 26.5942C15.5809 26.6094 14.8017 26.4553 14.0814 26.1426C13.4133 25.8375 12.8116 25.4043 12.3104 24.8675C11.3109 23.7877 10.7682 22.3628 10.7962 20.8916C10.7947 20.1501 10.9298 19.4147 11.1947 18.7221C11.448 18.0491 11.8266 17.4301 12.3104 16.898C12.8078 16.3613 13.4108 15.9333 14.0814 15.6405C15.1371 15.1694 16.3131 15.0373 17.447 15.2625C18.581 15.4877 19.6172 16.0591 20.4128 16.898C21.4034 17.962 21.9458 19.367 21.927 20.8208L21.9624 20.803ZM38.0874 26.4349H36.6086L41.7092 15.3218H42.8426L48.1556 26.4349H46.6149L42.3113 17.1725C41.1247 19.829 40.3101 21.3521 39.1058 23.982H45.0741L38.0963 26.3994L38.0874 26.4349ZM2.13594 25.1066H8.33448V26.4349H0.798828V15.3218H2.13594V25.1155V25.1066ZM29.135 22.0959L24.3975 15.3218H26.0623L29.8522 20.7056L33.5625 15.3218H35.3335L30.5518 22.0693V26.4349H29.135V22.0959ZM53.0436 25.1066H59.2422V26.4349H51.7596V15.3218H53.0436V25.1155V25.1066ZM64.2453 16.6589H60.5704V15.3218H69.2661V16.6589H65.6089V26.3994H64.2718V16.6589H64.2453ZM76.7043 22.0959L71.9934 15.3218H73.6582L77.4481 20.7056L81.1584 15.3218H82.9294L78.1211 22.0693V26.4349H76.7397V22.0959H76.7043ZM16.4103 25.3014C16.9694 25.3169 17.5254 25.2119 18.0403 24.9934C18.5552 24.7749 19.0171 24.448 19.3944 24.0351C20.1779 23.1891 20.6004 22.0709 20.5722 20.9182C20.5821 20.3295 20.483 19.7441 20.2799 19.1914C20.0764 18.6704 19.7759 18.1926 19.3944 17.7835C19.0038 17.3998 18.5401 17.0987 18.0308 16.898C17.5041 16.6642 16.9333 16.5465 16.3571 16.5526C15.8036 16.5352 15.2527 16.6359 14.7412 16.8482C14.2297 17.0604 13.7693 17.3793 13.3907 17.7835C12.6072 18.6295 12.1847 19.7477 12.213 20.9004C12.2115 21.4908 12.3196 22.0763 12.5318 22.6272C12.735 23.1458 13.0356 23.6207 13.4173 24.0263C13.79 24.4241 14.2386 24.7433 14.7367 24.9649C15.2633 25.1986 15.8341 25.3164 16.4103 25.3103V25.3014Z" fill="white"/>
<path fill-rule="evenodd" clip-rule="evenodd" d="M112.071 21.4141C112.331 21.5275 112.575 21.6733 112.798 21.848C113.085 22.0692 113.313 22.3582 113.462 22.6892C113.638 23.1245 113.72 23.5924 113.701 24.0617C113.718 24.7363 113.807 25.4071 113.966 26.063L114.046 26.426H112.612L112.505 25.8416C112.363 25.1812 112.294 24.507 112.302 23.8315C112.301 23.5384 112.221 23.251 112.071 22.9991C112 22.9007 111.913 22.8141 111.815 22.7423L111.443 22.4944C111.32 22.4303 111.189 22.3827 111.053 22.3527L110.354 22.2022C110.164 22.1665 109.971 22.1487 109.778 22.149H106.634V26.4614H105.288V15.3218H109.893C110.569 15.3282 111.238 15.4572 111.868 15.7025C112.237 15.8326 112.586 16.0144 112.904 16.2427C113.253 16.5051 113.534 16.8467 113.725 17.2393C113.916 17.6319 114.011 18.0643 114.002 18.5007C114.028 18.9362 113.963 19.3723 113.81 19.781C113.658 20.1898 113.421 20.562 113.116 20.8739C112.852 21.087 112.552 21.2519 112.231 21.3609L112.098 21.4141H112.071ZM119.457 26.4349H118.119V15.3218H119.457V26.4349ZM134.174 17.9163L130.578 23.3533H130.153L126.408 17.9075V26.4437H125.071V15.3218H126.266L130.348 21.3255L134.395 15.3572H135.484V26.4349H134.147V17.9163H134.174ZM142.683 25.0978H149.36V26.4349H141.337V20.2363H148.678V21.5734H142.657V25.1155L142.683 25.0978ZM141.373 17.8897V15.3129H149.342L141.373 17.8897ZM100.303 16.1187C100.703 16.3768 101.039 16.7219 101.286 17.1282C101.549 17.5439 101.688 18.0264 101.684 18.5185C101.737 19.5969 101.376 20.6546 100.675 21.476C100.299 21.8526 99.8471 22.1446 99.3492 22.3325C98.8514 22.5203 98.3192 22.5997 97.7882 22.5652H94.7509V26.4614H93.3784V15.3218H97.983C98.8157 15.3505 99.6219 15.6213 100.303 16.101V16.1187ZM94.7509 21.2192H97.6022C98.07 21.2271 98.5352 21.149 98.9748 20.989C100.037 20.5905 100.294 19.5545 100.294 18.5185C100.24 18.0578 100.02 17.6327 99.6743 17.323C99.4817 17.1177 99.2483 16.9549 98.9891 16.8451C98.7298 16.7353 98.4505 16.6809 98.169 16.6855H94.7421V21.2281L94.7509 21.2192ZM106.67 20.8031H109.521C110.367 20.8561 111.208 20.6457 111.93 20.2009C112.169 19.9945 112.358 19.7348 112.479 19.4427C112.601 19.1505 112.652 18.834 112.629 18.5185C112.638 18.2565 112.579 17.9968 112.456 17.7653C112.333 17.5337 112.152 17.3385 111.93 17.1991C111.385 16.8387 110.741 16.6562 110.088 16.6766H106.661V20.8031H106.67Z" fill="white"/>
<path fill-rule="evenodd" clip-rule="evenodd" d="M87.2773 0.958923C86.5157 14.0267 86.5157 27.1278 87.2773 40.1956C87.3747 33.6872 87.6669 27.0193 87.5695 20.5817C87.6669 14.1441 87.3747 7.46738 87.2773 0.967778V0.958923Z" fill="white"/>
</svg>