<svg width="150" height="26" viewBox="0 0 150 26" fill="none" xmlns="http://www.w3.org/2000/svg">
<path d="M9.11513 0.425781H9.00952H2.29312C1.89681 0.425781 1.51673 0.583215 1.2365 0.86345C0.956262 1.14368 0.798828 1.52376 0.798828 1.92007C0.798828 2.31639 0.956262 2.69647 1.2365 2.9767C1.51673 3.25693 1.89681 3.41437 2.29312 3.41437H8.71911C11.1823 3.47265 13.5249 4.49207 15.2464 6.25476C16.9679 8.01745 17.9316 10.3836 17.9316 12.8474C17.9316 15.3113 16.9679 17.6774 15.2464 19.4401C13.5249 21.2028 11.1823 22.2222 8.71911 22.2805H3.78742V15.7066C3.78742 15.3103 3.62998 14.9303 3.34975 14.65C3.06951 14.3698 2.68943 14.2124 2.29312 14.2124C1.89681 14.2124 1.51673 14.3698 1.2365 14.65C0.956262 14.9303 0.798828 15.3103 0.798828 15.7066L0.798828 23.7748C0.798828 24.1711 0.956262 24.5512 1.2365 24.8314C1.51673 25.1116 1.89681 25.2691 2.29312 25.2691H8.71911C11.9307 25.2001 14.9907 23.8894 17.2564 21.6121C19.5221 19.3349 20.8172 16.2683 20.8698 13.0564C20.9225 9.84443 19.7285 6.73707 17.5386 4.38682C15.3487 2.03658 12.3333 0.626311 9.12569 0.452182L9.11513 0.425781Z" fill="white"/>
<path d="M11.6813 20.3057L12.2621 20.0998C13.936 19.4978 15.8949 18.0616 15.8949 15.9865C15.8907 13.061 14.7267 10.2565 12.658 8.18781C10.5894 6.11914 7.78486 4.95512 4.85932 4.95093H2.29315C1.89684 4.95093 1.51676 5.10836 1.23653 5.3886C0.956293 5.66883 0.798859 6.04891 0.798859 6.44522C0.798859 6.84153 0.956293 7.22161 1.23653 7.50185C1.51676 7.78208 1.89684 7.93951 2.29315 7.93951H4.85932C6.2466 7.94301 7.60951 8.30438 8.81627 8.9887C10.023 9.67302 11.0328 10.6571 11.748 11.8459C12.4631 13.0346 12.8595 14.3878 12.8987 15.7745C12.9379 17.1612 12.6186 18.5346 11.9717 19.7619L11.6813 20.3057Z" fill="white"/>
<path d="M39.6981 16.9264C39.6967 17.1413 39.6527 17.3538 39.5687 17.5517C39.4847 17.7495 39.3624 17.9287 39.2087 18.0789C39.055 18.2292 38.8731 18.3475 38.6734 18.427C38.4737 18.5065 38.2602 18.5456 38.0454 18.5421H26.6718C27.0108 19.5335 27.651 20.3941 28.503 21.0038C29.3551 21.6135 30.3763 21.9417 31.424 21.9426C32.7384 21.962 34.0276 21.5807 35.1201 20.8496C35.3117 20.7503 35.5215 20.6911 35.7368 20.6758C35.952 20.6605 36.1681 20.6893 36.3718 20.7605C36.5756 20.8317 36.7626 20.9438 36.9214 21.0899C37.0802 21.2359 37.2076 21.4129 37.2956 21.6099C37.4602 22.0058 37.4701 22.4491 37.3234 22.852C37.1768 23.2548 36.8841 23.588 36.5035 23.7854C35.0171 24.8141 33.2284 25.3143 31.424 25.2057C29.2651 25.1512 27.2129 24.2553 25.7052 22.709C24.1976 21.1628 23.3537 19.0886 23.3537 16.929C23.3537 14.7694 24.1976 12.6953 25.7052 11.1491C27.2129 9.60282 29.2651 8.70688 31.424 8.65234C35.4105 8.65234 39.6981 11.5512 39.6981 16.9264ZM26.6718 15.279H36.1762C35.8582 14.2774 35.2221 13.407 34.3644 12.7999C33.5067 12.1929 32.4743 11.8823 31.424 11.9155C30.3814 11.916 29.3645 12.2398 28.5135 12.8421C27.6624 13.4445 27.019 14.2958 26.6718 15.279Z" fill="white"/>
<path d="M64.8899 15.4426C64.919 15.492 64.9319 15.5492 64.9269 15.6063V23.6216C64.9255 24.059 64.7507 24.478 64.4409 24.7868C64.1311 25.0956 63.7116 25.269 63.2742 25.269C63.0597 25.2677 62.8476 25.2239 62.6501 25.1402C62.4527 25.0565 62.2737 24.9346 62.1235 24.7815C61.9733 24.6284 61.8549 24.4471 61.7751 24.248C61.6953 24.049 61.6556 23.8361 61.6584 23.6216V15.3106C61.6584 14.4185 61.3041 13.563 60.6733 12.9323C60.0425 12.3015 59.187 11.9471 58.2949 11.9471C57.4029 11.9471 56.5474 12.3015 55.9166 12.9323C55.2858 13.563 54.9315 14.4185 54.9315 15.3106V23.6216C54.935 23.8363 54.8958 24.0495 54.8162 24.2488C54.7367 24.4482 54.6183 24.6298 54.468 24.7831C54.3176 24.9363 54.1384 25.0582 53.9406 25.1416C53.7428 25.2251 53.5304 25.2684 53.3157 25.269C52.8792 25.2676 52.461 25.0936 52.1524 24.785C51.8437 24.4763 51.6697 24.0581 51.6683 23.6216V15.3106C51.6683 14.4227 51.3156 13.5713 50.6878 12.9435C50.06 12.3156 49.2085 11.963 48.3207 11.963C47.4328 11.963 46.5813 12.3156 45.9535 12.9435C45.3257 13.5713 44.973 14.4227 44.973 15.3106V23.6216C44.973 24.0543 44.8011 24.4693 44.4951 24.7753C44.1892 25.0813 43.7742 25.2532 43.3414 25.2532C42.9087 25.2532 42.4937 25.0813 42.1877 24.7753C41.8818 24.4693 41.7099 24.0543 41.7099 23.6216V15.3106C41.7168 13.5609 42.4161 11.8851 43.6548 10.6494C44.8935 9.41363 46.571 8.71841 48.3207 8.71564C49.2681 8.70915 50.2056 8.90887 51.0682 9.30093C51.9307 9.693 52.6976 10.268 53.3157 10.9861C53.932 10.2696 54.6963 9.69522 55.5558 9.30235C56.4154 8.90949 57.3499 8.70753 58.2949 8.71036C60.0483 8.70755 61.7312 9.40029 62.9745 10.6366C64.2177 11.873 64.9199 13.552 64.9269 15.3053C64.9269 15.3792 64.9269 15.4109 64.8899 15.4426Z" fill="white"/>
<path d="M66.8012 16.9263C66.8012 15.2886 67.2869 13.6877 68.1969 12.326C69.1069 10.9644 70.4002 9.90319 71.9134 9.2767C73.4266 8.65021 75.0915 8.48656 76.6977 8.80645C78.3039 9.12634 79.7791 9.91539 80.9368 11.0738C82.0945 12.2322 82.8826 13.7079 83.2014 15.3143C83.5203 16.9207 83.3556 18.5856 82.7281 20.0983C82.1007 21.6111 81.0387 22.9038 79.6765 23.8129C78.3142 24.722 76.713 25.2067 75.0753 25.2056C72.8804 25.2042 70.7758 24.3313 69.2243 22.7788C67.6728 21.2263 66.8012 19.1212 66.8012 16.9263ZM70.0644 16.9263C70.0633 17.9189 70.3568 18.8894 70.9075 19.7151C71.4583 20.5408 72.2417 21.1846 73.1585 21.5649C74.0753 21.9452 75.0843 22.045 76.0579 21.8516C77.0314 21.6583 77.9257 21.1804 78.6275 20.4786C79.3294 19.7767 79.8072 18.8824 80.0006 17.9089C80.194 16.9354 80.0942 15.9263 79.7139 15.0095C79.3336 14.0927 78.6898 13.3094 77.8641 12.7586C77.0384 12.2078 76.0678 11.9144 75.0753 11.9154C73.7434 11.914 72.4653 12.4406 71.5211 13.3799C70.5769 14.3192 70.0436 15.5945 70.038 16.9263H70.0644Z" fill="white"/>
<path d="M98.5985 10.2681V2.05736C98.5985 1.62464 98.7704 1.20964 99.0764 0.903659C99.3824 0.597679 99.7974 0.425781 100.23 0.425781C100.663 0.425781 101.078 0.597679 101.384 0.903659C101.69 1.20964 101.862 1.62464 101.862 2.05736V16.8419C101.858 18.705 101.225 20.5122 100.065 21.9702C98.9053 23.4282 97.2867 24.4515 95.4722 24.8741C93.6576 25.2966 91.7536 25.0935 90.0689 24.2978C88.3843 23.502 87.018 22.1604 86.1918 20.4905C85.3655 18.8207 85.1278 16.9206 85.5172 15.0986C85.9067 13.2767 86.9003 11.6398 88.337 10.4536C89.7737 9.26743 91.5691 8.60155 93.4318 8.56403C95.2945 8.52651 97.1153 9.11956 98.5985 10.2469V10.2681ZM98.5985 16.863V16.8313C98.5943 15.4995 98.0618 14.2238 97.1179 13.2843C96.1739 12.3448 94.8957 11.8183 93.5639 11.8204C92.2321 11.8225 90.9556 12.3531 90.0146 13.2955C89.0736 14.238 88.5451 15.5154 88.5451 16.8472C88.5451 18.179 89.0736 19.4563 90.0146 20.3988C90.9556 21.3413 92.2321 21.8718 93.5639 21.8739C94.8957 21.876 96.1739 21.3495 97.1179 20.41C98.0618 19.4705 98.5943 18.1948 98.5985 16.863Z" fill="white"/>
<path d="M120.332 16.9264C120.33 17.1413 120.286 17.3538 120.202 17.5516C120.118 17.7494 119.996 17.9287 119.842 18.0789C119.689 18.2292 119.507 18.3474 119.307 18.4269C119.107 18.5064 118.894 18.5456 118.679 18.5421H107.306C107.645 19.5334 108.285 20.3941 109.137 21.0038C109.989 21.6134 111.01 21.9417 112.058 21.9425C113.372 21.9619 114.661 21.5807 115.754 20.8495C115.945 20.7502 116.155 20.6911 116.371 20.6758C116.586 20.6605 116.802 20.6893 117.006 20.7605C117.209 20.8317 117.396 20.9438 117.555 21.0898C117.714 21.2359 117.841 21.4128 117.929 21.6099C118.093 22.0059 118.102 22.4487 117.955 22.8513C117.809 23.2538 117.517 23.587 117.137 23.7853C115.651 24.8141 113.862 25.3143 112.058 25.2057C110.953 25.2336 109.854 25.0401 108.826 24.6367C107.797 24.2333 106.86 23.6281 106.069 22.8568C105.278 22.0855 104.649 21.1637 104.22 20.1456C103.79 19.1275 103.569 18.0338 103.569 16.929C103.569 15.8241 103.79 14.7305 104.22 13.7124C104.649 12.6943 105.278 11.7725 106.069 11.0012C106.86 10.2298 107.797 9.62465 108.826 9.22125C109.854 8.81785 110.953 8.6244 112.058 8.6523C116.044 8.6523 120.332 11.5511 120.332 16.9264ZM107.306 15.2789H116.81C116.49 14.2725 115.849 13.3987 114.985 12.7912C114.121 12.1838 113.081 11.8761 112.026 11.9155C110.989 11.9225 109.979 12.2493 109.134 12.8512C108.29 13.4531 107.651 14.3009 107.306 15.2789Z" fill="white"/>
<path d="M133.786 20.2899C133.786 21.2456 133.094 25.2374 128.278 25.2374C125.971 25.2374 123.267 24.213 122.375 21.9056C122.317 21.76 122.293 21.6026 122.306 21.4462C122.328 21.0128 122.514 20.6041 122.828 20.3037C123.141 20.0033 123.557 19.834 123.991 19.8305C124.234 19.8323 124.473 19.8899 124.69 19.9989C124.907 20.1078 125.096 20.2652 125.242 20.4588C125.56 20.9518 126.001 21.3536 126.521 21.6248C127.042 21.896 127.623 22.0274 128.21 22.0059C130.322 22.0059 130.485 20.5539 130.522 20.2899C130.522 19.1705 129.366 18.7058 127.782 18.5421C125.77 18.3151 122.306 17.2221 122.306 13.5999C122.306 10.4317 124.978 8.552 127.882 8.552C128.983 8.55516 130.068 8.81553 131.05 9.31235C131.383 9.47603 133.791 10.5638 133.791 12.5755C133.751 12.9994 133.558 13.3942 133.248 13.6859C132.938 13.9775 132.532 14.146 132.106 14.1596C131.314 14.1596 130.987 13.6315 130.591 13.0349C130.132 12.1108 128.743 11.8152 127.819 11.8152C126.599 11.8152 125.548 12.5069 125.548 13.6315C125.548 16.0023 129.107 14.4553 131.842 16.5673C132.418 17.0091 132.89 17.571 133.225 18.214C133.561 18.8569 133.752 19.5654 133.786 20.2899Z" fill="white"/>
<path d="M148.692 24.741C148.531 24.8816 148.344 24.9883 148.142 25.0548C147.939 25.1213 147.725 25.1462 147.512 25.1279C147.3 25.1097 147.093 25.0487 146.905 24.9486C146.716 24.8486 146.55 24.7115 146.416 24.5457L140.148 17.0267L139.14 17.7184V23.4896C139.139 23.927 138.964 24.346 138.654 24.6548C138.344 24.9636 137.925 25.137 137.487 25.137C137.273 25.1357 137.061 25.0919 136.863 25.0082C136.666 24.9245 136.487 24.8026 136.337 24.6495C136.186 24.4964 136.068 24.3151 135.988 24.116C135.908 23.917 135.869 23.7041 135.871 23.4896V2.1207C135.873 1.69442 136.042 1.28584 136.342 0.983434C136.643 0.681024 137.05 0.509125 137.477 0.504962C137.911 0.500707 138.329 0.668067 138.641 0.970642C138.952 1.27322 139.132 1.68653 139.14 2.1207V13.8586L146.622 8.94798C146.785 8.79777 146.976 8.68227 147.185 8.60854C147.394 8.5348 147.616 8.50438 147.837 8.51911C148.058 8.53384 148.274 8.59342 148.471 8.69422C148.668 8.79502 148.843 8.93493 148.984 9.10542C149.126 9.27592 149.231 9.47342 149.293 9.6859C149.356 9.89837 149.375 10.1214 149.348 10.3413C149.322 10.5612 149.251 10.7735 149.14 10.9652C149.029 11.1568 148.88 11.3238 148.702 11.4561L142.931 15.2472L148.935 22.4705C149.203 22.804 149.329 23.2303 149.283 23.656C149.237 24.0817 149.025 24.472 148.692 24.741Z" fill="white"/>
</svg>