<svg width="21" height="21" viewBox="0 0 21 21" fill="none" xmlns="http://www.w3.org/2000/svg">
<path fill-rule="evenodd" clip-rule="evenodd" d="M18.5971 0.992676H2.59711C1.49511 0.992676 0.597107 1.89068 0.597107 2.99268V18.9927C0.597107 20.0947 1.49511 20.9927 2.59711 20.9927H18.5971C19.6991 20.9927 20.5971 20.0947 20.5971 18.9927V2.99268C20.5971 1.89068 19.6991 0.992676 18.5971 0.992676ZM6.99513 14.0945H4.79613C4.59713 14.0945 4.49513 13.8905 4.59713 13.6915L6.89813 9.49247V9.29346L5.39813 6.69146C5.29613 6.49246 5.39813 6.29346 5.59713 6.29346H7.79613C7.89813 6.29346 7.99513 6.29346 7.99513 6.39046L9.69913 9.29346V9.49247L7.19913 13.9925C7.19913 14.0945 7.09713 14.0945 6.99513 14.0945ZM16.5971 4.39044L12.1991 12.4924V12.6914L15.0971 17.6914C15.1991 17.8904 15.0971 18.0944 14.8981 18.0944H12.5971C12.4951 18.0944 12.3981 18.0944 12.3981 17.9924L9.3981 12.7934V12.5944L13.9951 4.29344C13.9951 3.99244 14.0971 3.99244 14.1991 3.99244H16.3981C16.4951 3.99244 16.6991 4.19144 16.5971 4.39044Z" fill="#BABABA"/>
</svg>