<svg width="128" height="22" viewBox="0 0 128 22" fill="none" xmlns="http://www.w3.org/2000/svg">
<path fill-rule="evenodd" clip-rule="evenodd" d="M31.0384 3.48595C30.6815 3.90238 30.2696 4.40851 29.8012 5.00304C29.3329 5.59758 28.8313 6.24847 28.2963 6.95453C27.7614 7.66049 27.2149 8.4114 26.6581 9.20715C26.1008 10.0028 25.5504 10.8062 25.0084 11.6173C24.4657 12.4271 23.9532 13.2267 23.4701 14.0134C22.9871 14.8027 22.5527 15.5459 22.1664 16.2455H31.2613V17.5601H20.5103V16.4223C20.837 15.7842 21.2278 15.082 21.6815 14.3159C22.135 13.5496 22.6219 12.7616 23.1421 11.9504C23.6623 11.1407 24.205 10.3258 24.7707 9.50819C25.3358 8.69071 25.8931 7.90656 26.4435 7.15565C26.9932 6.40484 27.518 5.70901 28.0164 5.06962C28.5141 4.43033 28.9716 3.88055 29.388 3.41927H20.9344V2.10339H31.0384V3.48595Z" fill="#343FFF"/>
<path fill-rule="evenodd" clip-rule="evenodd" d="M41.5665 10.869C41.5371 9.6645 41.2545 8.72785 40.7189 8.05771C40.184 7.38886 39.4254 7.05568 38.4439 7.05568C37.9231 7.05568 37.4586 7.15817 37.0498 7.36703C36.6404 7.57589 36.2836 7.8552 35.9792 8.20377C35.6743 8.55233 35.436 8.95845 35.2655 9.41853C35.0945 9.87972 34.9939 10.3641 34.9644 10.869H41.5665ZM33.3807 11.7838C33.3807 10.7728 33.5255 9.89126 33.8157 9.14036C34.1053 8.38955 34.4846 7.76039 34.9529 7.25555C35.4219 6.75062 35.9568 6.37397 36.559 6.12919C37.1613 5.88451 37.7821 5.76147 38.4215 5.76147C39.8341 5.76147 40.9605 6.22275 41.801 7.14403C42.6409 8.0653 43.0612 9.48634 43.0612 11.4046C43.0612 11.5237 43.0574 11.6428 43.0504 11.7607C43.0426 11.8812 43.0311 11.9914 43.0164 12.0964H34.9196C34.9644 13.5085 35.3136 14.5938 35.9684 15.3523C36.6225 16.1109 37.6636 16.4901 39.091 16.4901C39.8791 16.4901 40.5036 16.4158 40.9643 16.2671C41.425 16.1186 41.76 15.9917 41.9682 15.8879L42.236 17.1372C42.0278 17.2564 41.637 17.3974 41.0649 17.56C40.4921 17.7241 39.8195 17.8061 39.0462 17.8061C38.0345 17.8061 37.1728 17.6574 36.4585 17.3602C35.7448 17.0629 35.1573 16.6465 34.6967 16.1109C34.2353 15.5753 33.9009 14.9397 33.6927 14.2029C33.4845 13.4675 33.3807 12.6601 33.3807 11.7838Z" fill="#343FFF"/>
<mask id="mask0" mask-type="alpha" maskUnits="userSpaceOnUse" x="46" y="5" width="22" height="17">
<path fill-rule="evenodd" clip-rule="evenodd" d="M46.2953 5.80493H67.9314V21.7482H46.2953V5.80493Z" fill="white"/>
</mask>
<g mask="url(#mask0)">
<path fill-rule="evenodd" clip-rule="evenodd" d="M46.2953 6.43022C46.7264 6.31106 47.3063 6.17652 48.0354 6.02788C48.7638 5.87925 49.6556 5.80493 50.7121 5.80493C51.5892 5.80493 52.3215 5.93183 52.9089 6.18416C53.4965 6.43787 53.9648 6.79794 54.3146 7.26567C54.6637 7.73459 54.913 8.29588 55.0616 8.95064C55.2103 9.60541 55.2846 10.3256 55.2846 11.1148V17.5599H53.8347V11.5825C53.8347 10.765 53.779 10.0743 53.6676 9.50797C53.556 8.9442 53.3697 8.48292 53.1095 8.12542C52.8493 7.76793 52.5072 7.51164 52.0838 7.35536C51.6596 7.19899 51.1279 7.1221 50.4892 7.1221C49.8049 7.1221 49.2136 7.15801 48.7158 7.23233C48.2173 7.30794 47.8938 7.37461 47.7451 7.43475V17.5599H46.2953V6.43022Z" fill="#343FFF"/>
<path fill-rule="evenodd" clip-rule="evenodd" d="M66.4815 7.4348C66.2285 7.36048 65.9017 7.28884 65.5 7.22216C65.099 7.15549 64.5262 7.12215 63.783 7.12215C63.1585 7.12215 62.6042 7.22981 62.1211 7.44511C61.6374 7.66033 61.2248 7.96533 60.8834 8.35994C60.5406 8.75464 60.2811 9.22237 60.1024 9.76432C59.9237 10.3076 59.8345 10.906 59.8345 11.5608C59.8345 12.3194 59.9383 12.9702 60.1472 13.5122C60.3548 14.0543 60.6264 14.4976 60.9609 14.8385C61.2959 15.1818 61.6785 15.4304 62.1095 15.5868C62.5408 15.7431 62.9796 15.82 63.4262 15.82C64.0803 15.82 64.6787 15.725 65.2214 15.5304C65.7641 15.3382 66.1843 15.1151 66.4815 14.8615V7.4348ZM66.504 16.2223C66.4149 16.2966 66.281 16.3824 66.1022 16.4785C65.9242 16.5759 65.7044 16.6758 65.4443 16.7796C65.1843 16.8835 64.8869 16.9692 64.5524 17.0372C64.218 17.1038 63.8419 17.1371 63.4262 17.1371C62.7567 17.1371 62.1095 17.032 61.4856 16.8245C60.8609 16.6169 60.3144 16.289 59.8461 15.843C59.3771 15.3971 59.0017 14.8204 58.7192 14.1144C58.4366 13.4084 58.2957 12.5499 58.2957 11.5376C58.2957 10.7202 58.4219 9.96161 58.6749 9.262C58.9274 8.56488 59.2881 7.95754 59.7565 7.44506C60.2247 6.93249 60.7975 6.53014 61.474 6.24061C62.1506 5.95099 62.913 5.80493 63.7606 5.80493C64.8312 5.80493 65.6896 5.87667 66.3367 6.01766C66.9839 6.15856 67.5149 6.29697 67.9314 6.43022V16.9577C67.9314 18.6825 67.4855 19.9138 66.5931 20.6505C65.7013 21.3861 64.3552 21.7538 62.5562 21.7538C61.8123 21.7538 61.1396 21.6987 60.5374 21.5859C59.9352 21.4758 59.4181 21.3451 58.9869 21.1964L59.2772 19.8805C59.6341 20.0432 60.1209 20.1841 60.738 20.3046C61.3549 20.4224 61.9764 20.4827 62.6004 20.4827C63.9688 20.4827 64.9612 20.2187 65.5782 19.6909C66.1951 19.163 66.504 18.2596 66.504 16.9807V16.2223Z" fill="#343FFF"/>
</g>
<path fill-rule="evenodd" clip-rule="evenodd" d="M75.6944 5.80493C76.1698 5.80493 76.6201 5.84333 77.0437 5.91765C77.4677 5.99206 77.7612 6.06638 77.9245 6.1406L77.635 7.3887C77.5158 7.32976 77.2743 7.26567 76.9098 7.19899C76.5452 7.13241 76.066 7.09908 75.4715 7.09908C74.8468 7.09908 74.3445 7.14392 73.9658 7.23233C73.5866 7.32203 73.3374 7.39634 73.2182 7.45528V17.5599H71.7684V6.56348C72.1399 6.40076 72.6531 6.23288 73.3073 6.06122C73.962 5.89205 74.7578 5.80493 75.6944 5.80493Z" fill="#343FFF"/>
<path fill-rule="evenodd" clip-rule="evenodd" d="M88.4085 11.8055C88.4085 10.364 88.0734 9.21464 87.4045 8.35995C86.7357 7.50407 85.8279 7.07612 84.683 7.07612C83.538 7.07612 82.6309 7.50407 81.962 8.35995C81.2926 9.21464 80.9581 10.364 80.9581 11.8055C80.9581 13.2483 81.2926 14.3926 81.962 15.2408C82.6309 16.0891 83.538 16.5119 84.683 16.5119C85.8279 16.5119 86.7357 16.0891 87.4045 15.2408C88.0734 14.3926 88.4085 13.2483 88.4085 11.8055ZM89.9474 11.8055C89.9474 12.714 89.8174 13.5392 89.5573 14.2823C89.2965 15.0256 88.9326 15.6572 88.4643 16.1775C87.996 16.699 87.4417 17.1039 86.8024 17.3935C86.1629 17.683 85.4562 17.8291 84.683 17.8291C83.9098 17.8291 83.2038 17.683 82.5643 17.3935C81.9249 17.1039 81.3707 16.699 80.9024 16.1775C80.4341 15.6572 80.0695 15.0256 79.8094 14.2823C79.5494 13.5392 79.4193 12.714 79.4193 11.8055C79.4193 10.8997 79.5494 10.0744 79.8094 9.32997C80.0695 8.58681 80.4341 7.95 80.9024 7.42205C81.3707 6.89547 81.9249 6.48669 82.5643 6.19586C83.2038 5.90624 83.9098 5.76147 84.683 5.76147C85.4562 5.76147 86.1629 5.90624 86.8024 6.19586C87.4417 6.48669 87.996 6.89547 88.4643 7.42205C88.9326 7.95 89.2965 8.58681 89.5573 9.32997C89.8174 10.0744 89.9474 10.8997 89.9474 11.8055Z" fill="#343FFF"/>
<path fill-rule="evenodd" clip-rule="evenodd" d="M100.534 6.02795C100.667 6.77112 100.842 7.56301 101.056 8.40361C101.271 9.24412 101.507 10.0975 101.766 10.9689C102.026 11.8376 102.3 12.696 102.591 13.5444C102.882 14.3926 103.177 15.1896 103.475 15.9327C103.729 15.3677 103.998 14.6809 104.281 13.8711C104.565 13.0625 104.849 12.2066 105.132 11.3084C105.415 10.4102 105.68 9.50298 105.926 8.58678C106.172 7.67066 106.377 6.81726 106.541 6.02795H107.969C107.433 8.29338 106.848 10.3614 106.213 12.2347C105.579 14.1056 104.881 15.8815 104.12 17.56H102.776C102.55 17.0347 102.313 16.4504 102.066 15.8033C101.819 15.1575 101.564 14.4668 101.302 13.7314C101.04 12.9959 100.786 12.2232 100.541 11.4134C100.296 10.6036 100.063 9.77456 99.8397 8.92889C99.6169 9.77713 99.3839 10.6075 99.1398 11.4198C98.8949 12.2309 98.6425 13.0036 98.3819 13.7403C98.1213 14.4771 97.8671 15.1664 97.6213 15.8149C97.3754 16.4607 97.1415 17.0423 96.9195 17.56H95.5253C94.7628 15.8815 94.0657 14.1056 93.4339 12.2309C92.8022 10.3576 92.2202 8.2908 91.6869 6.02795H93.2258C93.3897 6.81726 93.5951 7.66808 93.8419 8.58171C94.0878 9.49525 94.353 10.4024 94.6375 11.302C94.9212 12.2015 95.2076 13.0522 95.4986 13.8569C95.7887 14.6603 96.0613 15.3446 96.3154 15.9096C96.6 15.169 96.8855 14.3746 97.1719 13.5264C97.4573 12.6769 97.7253 11.8209 97.9777 10.9586C98.2291 10.0949 98.4657 9.24412 98.6877 8.40361C98.9087 7.56301 99.1085 6.77112 99.2844 6.02795H100.534Z" fill="#343FFF"/>
<path fill-rule="evenodd" clip-rule="evenodd" d="M111.739 6.028H116.334V7.25556H111.739V13.3893C111.739 14.0441 111.795 14.5758 111.906 14.9845C112.018 15.3933 112.177 15.7097 112.386 15.9328C112.594 16.1557 112.847 16.3044 113.144 16.3787C113.441 16.453 113.768 16.4901 114.126 16.4901C114.735 16.4901 115.226 16.4197 115.598 16.2788C115.969 16.1378 116.259 16.0071 116.468 15.8879L116.825 17.0924C116.617 17.2269 116.252 17.3781 115.732 17.5498C115.211 17.7202 114.646 17.8061 114.036 17.8061C113.323 17.8061 112.724 17.7138 112.241 17.5268C111.758 17.3422 111.37 17.0591 111.081 16.6798C110.791 16.3006 110.587 15.8277 110.468 15.2639C110.348 14.6976 110.289 14.0287 110.289 13.2561V2.6376L111.739 2.37109V6.028Z" fill="#343FFF"/>
<mask id="mask1" mask-type="alpha" maskUnits="userSpaceOnUse" x="0" y="0" width="128" height="18">
<path fill-rule="evenodd" clip-rule="evenodd" d="M0 0.251709H128V17.56H0V0.251709Z" fill="white"/>
</mask>
<g mask="url(#mask1)">
<path fill-rule="evenodd" clip-rule="evenodd" d="M119.011 17.56V0.519508L120.461 0.251709V6.36374C120.937 6.18426 121.419 6.04852 121.91 5.95109C122.401 5.85375 122.892 5.80503 123.383 5.80503C124.275 5.80503 125.018 5.93193 125.613 6.18426C126.208 6.43797 126.684 6.79804 127.04 7.26577C127.398 7.73469 127.646 8.29598 127.788 8.95074C127.929 9.60551 128 10.3257 128 11.1149V17.56H126.551V11.5826C126.551 10.7651 126.494 10.0744 126.383 9.50807C126.272 8.9443 126.085 8.48302 125.825 8.12552C125.565 7.76803 125.219 7.51174 124.789 7.35546C124.357 7.19909 123.814 7.1222 123.16 7.1222C122.907 7.1222 122.636 7.14402 122.346 7.18887C122.056 7.23243 121.784 7.28115 121.532 7.33364C121.278 7.38622 121.052 7.44258 120.851 7.50152C120.65 7.56046 120.52 7.6053 120.461 7.63477V17.56H119.011Z" fill="#343FFF"/>
<path fill-rule="evenodd" clip-rule="evenodd" d="M13.3992 1.99988H-0.00552368L1.30363 6.00139L13.3992 1.99988Z" fill="#343FFF"/>
</g>
<path fill-rule="evenodd" clip-rule="evenodd" d="M15.4828 4.42273V17.5252L11.4263 16.1886L15.4828 4.42273Z" fill="#343FFF"/>
<path fill-rule="evenodd" clip-rule="evenodd" d="M14.5239 3.08289L10.2185 15.7389L3.79285 13.5821L1.6908 7.30458L14.5239 3.08289Z" fill="#343FFF"/>
<path fill-rule="evenodd" clip-rule="evenodd" d="M0.0220795 7.83692L0.436946 7.72668L2.1886 13.0315L0.0220795 12.2972V7.83692Z" fill="#343FFF"/>
<path fill-rule="evenodd" clip-rule="evenodd" d="M4.3459 15.2181L9.80953 17.0436L9.58243 17.5251H5.05435L4.3459 15.2181Z" fill="#343FFF"/>
</svg>