<svg width="159" height="37" viewBox="0 0 159 37" fill="none" xmlns="http://www.w3.org/2000/svg">
<path d="M51.9611 26.4297H48.3391V14.0358H43.9084V11.1633H56.427V14.0358H51.9611V26.4297Z" fill="#F6F7FA"/>
<path d="M59.5389 26.8202C58.6028 26.8202 56.8618 26.645 55.72 25.4631C54.792 24.4987 54.3219 23.089 54.3219 21.2734C54.3219 18.9372 55.0804 17.2273 56.5759 16.1939C57.4631 15.6051 58.5152 15.2936 59.6208 15.2936C60.7812 15.2936 62.8911 15.6341 64.0129 17.915C64.598 19.1996 64.7091 20.6194 64.643 22.0101H57.6593C57.6864 23.0831 57.8981 24.3456 59.579 24.3806C60.4957 24.4033 61.0137 23.9476 61.2349 22.9419H64.3997L64.3814 23.1612C64.3462 23.5847 64.2629 24.5761 63.3356 25.545C62.5655 26.3567 61.1804 26.8216 59.5378 26.8216L59.5389 26.8202ZM61.1269 19.6949C61.0875 18.7764 60.7594 17.7766 59.5185 17.7766C58.1777 17.7766 57.8527 18.9869 57.7778 19.6949H61.1273H61.1269Z" fill="#F6F7FA"/>
<path d="M69.7718 26.6767C67.3923 26.759 66.0901 25.2793 66.062 23.3705C66.062 22.4968 66.364 20.8913 68.3878 19.9595C69.5718 19.5612 69.9818 19.4631 72.3965 19.3664L72.429 21.5425C68.965 21.467 69.0726 23.3508 69.9457 24.0669C70.7429 24.7205 72.5493 24.2999 72.4234 21.5369L72.3531 19.365C72.3485 18.8298 72.3214 18.5593 72.2198 18.2539C71.9765 17.5638 71.2032 17.5287 71.0506 17.5287C70.6416 17.5287 70.2724 17.7109 70.0625 18.0164C69.8712 18.3113 69.8712 18.5972 69.8712 18.8273V19.0294H66.4651L66.4729 18.8193C66.4922 18.2959 66.5379 17.0702 67.7339 16.2161C68.5514 15.6318 69.6535 15.3354 71.0094 15.3354C71.9997 15.3354 73.8187 15.518 74.8776 16.7419C75.6491 17.6685 75.6491 18.9892 75.6491 19.4232L75.6702 23.5989C75.6702 24.5797 75.7496 25.4282 75.9131 26.1887L75.9659 26.4339L72.8148 26.4463C72.745 26.3412 72.6814 25.3926 72.6814 25.3926L72.658 25.3928C72.616 25.6083 71.4572 26.6241 70.1617 26.6784" fill="#F6F7FA"/>
<path d="M91.2926 26.428V20.1189C91.2926 18.834 91.0288 17.9779 89.7418 17.9779C88.1903 17.9779 88.0673 19.2978 88.0673 21.0234V26.4252H84.586V20.0566C84.586 19.0505 84.4692 17.9772 83.0764 17.9772C81.3603 17.9772 81.3603 19.4232 81.3603 20.1182V26.4273H77.879V17.7957C77.879 17.2184 77.8467 16.6047 77.7767 15.8616L77.756 15.6406H81.1177L81.1958 16.6495C81.674 16.1181 82.5763 15.4143 84.2519 15.4143C85.3508 15.4143 86.7743 15.7236 87.5486 17.1347C88.2737 15.9906 89.3638 15.4353 90.8759 15.4353C93.0226 15.4353 93.9376 16.673 94.2316 17.2051C94.7788 18.0931 94.7753 19.3069 94.7728 20.1904V26.4259H91.2915L91.2926 26.428Z" fill="#F6F7FA"/>
<path d="M102.352 24.3383L106.959 11.1843H108.752L103.196 26.4297H101.403L95.8114 11.1843H97.7103L102.352 24.3383Z" fill="#F6F7FA"/>
<path d="M110.036 26.428V15.7051H111.68V26.428H110.036ZM109.932 13.1268V11.1808H111.783V13.1272H109.932V13.1268Z" fill="#F6F7FA"/>
<path d="M118.58 26.7399C115.304 26.7399 113.837 23.8919 113.837 21.0684C113.837 18.336 115.347 15.3969 118.661 15.3969C121.883 15.4256 123.591 17.5674 123.591 21.5553H115.591C115.655 22.7975 116.145 25.1985 118.971 25.1985C120.319 25.1985 121.468 24.2495 121.765 22.891L121.8 22.7317H123.526C122.693 26.3398 120.437 26.6866 118.578 26.7322L118.58 26.7399ZM121.825 20.0245C121.611 18.0571 120.475 16.9344 118.683 16.9344C116.746 16.9344 115.852 18.5514 115.65 20.0245H121.825Z" fill="#F6F7FA"/>
<path d="M131.89 15.7068H133.613L136.567 23.9671L139.415 15.7068H141.244L137.235 26.4298H135.758L132.699 17.8682L129.569 26.4298H128.057L124.084 15.7068H125.877L128.866 24.0582L131.89 15.7068Z" fill="#F6F7FA"/>
<path d="M146.396 26.7399C143.119 26.7399 141.652 23.8919 141.652 21.0684C141.652 18.336 143.162 15.3969 146.476 15.3969C149.872 15.4009 151.442 17.8771 151.407 21.5553H143.407C143.471 22.7975 143.96 25.1985 146.787 25.1985C148.144 25.1657 149.23 24.4352 149.616 22.7317H151.342C150.496 26.2663 148.228 26.7006 146.394 26.7322L146.396 26.7399ZM149.64 20.0245C149.426 18.0571 148.29 16.9344 146.499 16.9344C144.562 16.9344 143.667 18.5514 143.466 20.0245H149.64Z" fill="#F6F7FA"/>
<path d="M153.745 26.4279V18.2307C153.759 17.412 153.686 16.6697 153.642 15.9197L153.629 15.7057H155.319L155.359 16.7048C155.86 15.9341 156.676 15.4325 157.551 15.3974C157.673 15.3911 157.797 15.3887 157.922 15.3887C158.217 15.3887 158.515 15.4034 158.803 15.4177L158.996 15.4272L159 15.6199V17.032C156.12 16.5419 155.477 18.4146 155.441 19.7504L155.371 26.4272" fill="#F6F7FA"/>
<path d="M32.7787 0.911621H4.25317C3.25886 0.924378 2.30996 1.32289 1.61312 2.02035C0.916287 2.71781 0.527974 3.65773 0.532759 4.63539V33.0593C0.528014 34.0406 0.919222 34.9836 1.6206 35.6816C2.32198 36.3797 3.27629 36.7758 4.27427 36.7831H32.7998C33.7978 36.7758 34.7521 36.3797 35.4534 35.6816C36.1548 34.9836 36.546 34.0406 36.5413 33.0593V4.63539C36.5436 4.14779 36.4481 3.66452 36.2601 3.21329C36.0722 2.76205 35.7955 2.35171 35.446 2.00579C35.0965 1.65987 34.6809 1.38515 34.2232 1.1974C33.7655 1.00964 33.2746 0.912525 32.7787 0.911621V0.911621ZM18.523 33.6794C14.5509 33.6492 10.7535 32.0701 7.96509 29.289C5.17666 26.5079 3.6253 22.7523 3.65186 18.8474C3.6253 14.9424 5.17666 11.1868 7.96509 8.4057C10.7535 5.6246 14.5509 4.04549 18.523 4.01535C22.4968 4.04276 26.2969 5.62065 29.0876 8.40206C31.8784 11.1835 33.4312 14.9406 33.4046 18.8474C33.4312 22.7541 31.8784 26.5113 29.0876 29.2927C26.2969 32.0741 22.4968 33.652 18.523 33.6794Z" fill="#F6F7FA"/>
<path d="M32.3289 18.8473L22.0081 14.0936L22.8373 17.1396H14.2149L15.0441 14.0936L4.72331 18.8508L15.0511 23.6045L14.222 20.5586H22.8443L22.0151 23.6045L32.3289 18.8508" fill="#F6F7FA"/>
</svg>