<svg width="161" height="28" viewBox="0 0 161 28" fill="none" xmlns="http://www.w3.org/2000/svg">
<mask id="mask0" mask-type="alpha" maskUnits="userSpaceOnUse" x="0" y="0" width="161" height="28">
<path d="M0 0.286377H161V27.6303H0V0.286377Z" fill="white"/>
</mask>
<g mask="url(#mask0)">
<path fill-rule="evenodd" clip-rule="evenodd" d="M2.72207 24.9065C54.6099 24.9065 106.449 24.9065 158.275 24.9065C158.275 17.5606 158.275 10.2574 158.275 2.96434C106.4 2.96434 54.5765 2.96434 2.72207 2.96434C2.72207 10.2836 2.72207 17.5708 2.72207 24.9065ZM0 27.6303C0 18.4903 0 9.40886 0 0.286377C53.6679 0.286377 107.315 0.286377 161.001 0.286377C161.001 9.38966 161.001 18.4871 161.001 27.6303C107.346 27.6303 53.7013 27.6303 0 27.6303Z" fill="white"/>
</g>
<path fill-rule="evenodd" clip-rule="evenodd" d="M144.798 9.08984C144.798 10.3422 144.798 11.5214 144.798 12.6953C145.905 12.8233 146.799 12.6457 147.051 12.2009C147.495 11.4174 147.557 10.5256 147.145 9.77734C146.663 8.89997 145.687 9.07704 144.798 9.08984ZM144.784 18.8219C145.701 18.7526 146.687 19.0358 147.222 18.1083C147.801 17.1056 147.78 16.0037 147.16 15.0378C146.611 14.1834 145.653 14.4575 144.784 14.4324C144.784 15.905 144.784 17.3211 144.784 18.8219ZM142.377 7.53885C143.947 7.53885 145.478 7.42311 146.983 7.56872C148.75 7.73993 149.7 9.10531 149.48 10.8355C149.386 11.5849 149.393 12.3753 148.708 12.9055C148.478 13.0836 148.23 13.2388 147.958 13.4271C148.27 13.6201 148.608 13.7764 148.882 14.0095C149.775 14.7717 149.931 15.8394 149.894 16.9003C149.862 17.8198 149.634 18.719 148.959 19.4561C148.336 20.134 147.538 20.4097 146.686 20.4492C145.269 20.5153 143.847 20.4673 142.377 20.4673C142.377 16.1216 142.377 11.8094 142.377 7.53885Z" fill="white"/>
<path fill-rule="evenodd" clip-rule="evenodd" d="M32.318 12.7451C33.1501 12.7077 34.0226 12.9131 34.5424 12.1669C35.0734 11.4053 35.1111 10.4831 34.6038 9.70657C34.0759 8.89907 33.1657 9.07454 32.318 9.09908C32.318 10.3178 32.318 11.4842 32.318 12.7451ZM32.3357 14.4257C32.3357 15.9132 32.3357 17.3421 32.3357 18.805C33.2298 18.7741 34.2235 19.0243 34.7233 18.1085C35.2582 17.1298 35.2533 16.0439 34.6587 15.0566C34.1072 14.1414 33.1738 14.5009 32.3357 14.4257ZM35.389 13.4768C36.7011 13.8721 37.2537 14.8241 37.3226 16.1292C37.3538 16.7154 37.3054 17.3143 37.2154 17.8962C36.9407 19.6829 35.6605 20.3496 34.1923 20.4472C32.7785 20.5411 31.3539 20.4675 29.8862 20.4675C29.8862 16.1233 29.8862 11.8085 29.8862 7.35608C31.5074 7.42008 33.1517 7.33421 34.7389 7.59395C36.0892 7.81423 36.9483 8.57639 36.9445 10.3135C36.9434 10.7813 36.9881 11.2624 36.896 11.7141C36.7253 12.5499 36.4355 12.8438 35.389 13.4768Z" fill="white"/>
<path fill-rule="evenodd" clip-rule="evenodd" d="M90.2364 13.0529C91.131 13.0183 92.0487 13.1143 92.5157 12.2566C92.9703 11.4203 92.9713 10.4683 92.4812 9.64693C91.9723 8.79517 91.0604 9.08958 90.2364 9.05918C90.2364 10.4 90.2364 11.6891 90.2364 13.0529ZM95.2819 20.4681C94.543 20.4681 93.8773 20.4447 93.2137 20.4761C92.7058 20.4996 92.7489 20.0911 92.6778 19.8313C92.2636 18.3155 91.8985 16.7869 91.487 15.2701C91.2495 14.3975 91.2236 14.4044 90.2121 14.4978C90.2121 16.4611 90.2121 18.4323 90.2121 20.4351C89.3784 20.4351 88.6114 20.4351 87.7965 20.4351C87.7965 16.125 87.7965 11.8107 87.7965 7.39832C89.6299 7.56419 91.4886 7.1087 93.308 7.7786C94.2241 8.11621 94.7773 8.76797 94.9265 9.63467C95.0708 10.4731 95.0202 11.3611 94.9345 12.2156C94.8489 13.07 94.2489 13.6337 93.4728 14.0695C94.0717 16.1885 94.6679 18.2958 95.2819 20.4681Z" fill="white"/>
<path fill-rule="evenodd" clip-rule="evenodd" d="M80.6375 13.8768C80.6375 15.1141 80.6257 16.351 80.6413 17.5878C80.6526 18.4375 81.0286 18.8007 81.8413 18.8061C82.8334 18.8119 83.2093 18.5271 83.2169 17.6449C83.2374 15.2181 83.2384 12.7909 83.218 10.3646C83.2104 9.42486 82.7327 8.94004 81.9334 8.94858C81.1449 8.95818 80.6397 9.5294 80.6381 10.4222C80.6354 11.5737 80.6375 12.7253 80.6375 13.8768ZM85.6783 13.9413C85.6783 15.0288 85.696 16.1168 85.6745 17.2038C85.6379 19.0274 84.4756 20.6824 82.2286 20.6125C81.2548 20.5821 80.2912 20.6024 79.4736 19.9997C78.649 19.3911 78.271 18.4775 78.2079 17.526C78.0383 14.9632 77.9004 12.3908 78.3124 9.83235C78.5532 8.33736 79.8092 7.27652 81.3485 7.29092C82.0077 7.29732 82.6799 7.29465 83.3225 7.41679C84.8903 7.716 85.6056 9.13845 85.6675 10.4868C85.7203 11.6361 85.6783 12.7893 85.6783 13.9413Z" fill="white"/>
<path fill-rule="evenodd" clip-rule="evenodd" d="M22.8898 13.0378C23.7828 13.0586 24.6925 13.1274 25.2057 12.3493C25.7756 11.4852 25.7621 10.4532 25.2117 9.59769C24.6828 8.77579 23.7295 9.099 22.8898 9.05367C22.8898 10.3977 22.8898 11.6831 22.8898 13.0378ZM25.5898 20.4328C25.153 18.7596 24.7016 17.0844 24.2826 15.4016C24.0246 14.3659 24.0472 14.3605 22.8763 14.5152C22.8763 16.4614 22.8763 18.4151 22.8763 20.4184C22.0948 20.4184 21.3564 20.4184 20.5744 20.4184C20.5744 16.1163 20.5744 11.8042 20.5744 7.39974C22.4374 7.54481 24.3278 7.092 26.1445 7.81202C26.9513 8.13257 27.5406 8.71072 27.6214 9.57582C27.7086 10.5108 27.7495 11.4788 27.5885 12.3946C27.4986 12.9061 27.0197 13.4085 26.598 13.785C26.3147 14.0379 26.2221 14.1653 26.3325 14.5371C26.9115 16.4817 27.4506 18.4386 28.0156 20.4328C27.2201 20.4328 26.4564 20.4328 25.5898 20.4328Z" fill="white"/>
<path fill-rule="evenodd" clip-rule="evenodd" d="M54.7364 20.4516C54.2027 20.4516 53.7109 20.4516 53.1793 20.4516C52.1592 17.9859 51.1364 15.5122 50.1136 13.0385L50.0178 13.0492C50.0178 15.4984 50.0178 17.9465 50.0178 20.4319C49.3144 20.4319 48.6761 20.4319 47.9862 20.4319C47.9862 16.1315 47.9862 11.8156 47.9862 7.41486C48.4354 7.41486 48.904 7.38446 49.3639 7.43299C49.5088 7.44899 49.6838 7.657 49.7539 7.81647C50.6813 9.93389 51.5921 12.0577 52.5115 14.1788C52.575 14.325 52.6725 14.4573 52.8411 14.7437C52.8411 12.2156 52.8411 9.84802 52.8411 7.44739C53.4982 7.44739 54.0928 7.44739 54.7364 7.44739C54.7364 11.7574 54.7364 16.0728 54.7364 20.4516Z" fill="white"/>
<path fill-rule="evenodd" clip-rule="evenodd" d="M132.811 7.4386C133.594 7.4386 134.342 7.4386 135.186 7.4386C135.186 7.66581 135.186 7.88982 135.186 8.11382C135.186 10.9907 135.182 13.8682 135.192 16.7456C135.193 17.0784 135.246 17.416 135.315 17.7435C135.508 18.6636 135.754 18.8412 136.722 18.806C137.395 18.7809 137.68 18.4956 137.767 17.6417C137.844 16.8848 137.892 16.1221 137.896 15.3621C137.911 12.7428 137.902 10.123 137.902 7.45887C138.674 7.45887 139.412 7.45887 140.227 7.45887C140.227 7.68927 140.228 7.91595 140.228 8.14316C140.228 10.9347 140.262 13.7274 140.206 16.5189C140.19 17.3414 140.017 18.1953 139.734 18.9697C139.342 20.0417 138.395 20.5287 137.289 20.581C136.234 20.63 135.156 20.7367 134.188 20.0721C133.229 19.4129 132.915 18.4273 132.885 17.4064C132.79 14.1717 132.797 10.9337 132.767 7.69727C132.766 7.63541 132.787 7.57407 132.811 7.4386Z" fill="white"/>
<path fill-rule="evenodd" clip-rule="evenodd" d="M10.9658 7.44348C11.7543 7.44348 12.4782 7.44348 13.2914 7.44348C13.2914 7.67442 13.2914 7.89897 13.2914 8.12457C13.2914 11.0047 13.2893 13.8843 13.2947 16.7649C13.2947 17.0161 13.3146 17.2748 13.3728 17.5191C13.6615 18.7212 13.8801 18.902 14.9315 18.8023C15.6537 18.734 15.9289 18.3084 15.9925 17.1878C16.0577 16.0395 16.007 14.8848 16.007 13.7333C16.007 11.7492 16.007 9.7657 16.0087 7.78163C16.0087 7.67922 16.0221 7.57789 16.0318 7.44615C16.7902 7.44615 17.514 7.44615 18.2858 7.44615C18.3009 7.60242 18.3305 7.76403 18.3305 7.92563C18.3332 11.0191 18.3602 14.1125 18.3171 17.2054C18.302 18.2892 18.0489 19.3794 17.0288 19.9997C16.5096 20.3154 15.8578 20.5282 15.2525 20.5656C14.4812 20.6125 13.6808 20.501 12.9203 20.3362C12.0414 20.1448 11.5071 19.4786 11.2701 18.6588C11.0859 18.0193 10.9852 17.3356 10.9792 16.67C10.9491 13.6202 10.9658 10.5695 10.9658 7.44348Z" fill="white"/>
<path fill-rule="evenodd" clip-rule="evenodd" d="M123.94 12.1195C123.109 12.1195 122.386 12.1195 121.624 12.1195C121.579 11.473 121.533 10.8437 121.491 10.2149C121.437 9.39936 121.077 8.98282 120.393 8.94921C119.72 8.91668 119.054 9.45323 119.044 10.1797C119.011 12.6518 119.007 15.1244 119.051 17.5965C119.061 18.1202 119.24 18.7256 119.943 18.7954C120.512 18.852 121.178 18.94 121.394 18.2109C121.537 17.7325 121.533 17.2093 121.57 16.7036C121.594 16.3666 121.574 16.0268 121.574 15.6471C122.358 15.6471 123.098 15.6471 123.91 15.6471C123.879 16.8018 123.952 17.9309 123.439 19.0024C122.913 20.1038 122.014 20.5864 120.826 20.5912C120.229 20.5939 119.616 20.6163 119.037 20.4984C117.309 20.1438 116.683 18.6792 116.604 17.2013C116.488 15.0326 116.476 12.8491 116.605 10.6821C116.711 8.89374 117.446 7.23075 120.107 7.29102C120.68 7.30382 121.267 7.32089 121.82 7.45102C123.024 7.73423 123.589 8.6436 123.788 9.76044C123.92 10.505 123.892 11.2778 123.94 12.1195Z" fill="white"/>
<path fill-rule="evenodd" clip-rule="evenodd" d="M42.4867 10.7496L42.4043 10.7363C42.1285 12.4233 41.8533 14.1103 41.5732 15.825C42.1948 15.825 42.7231 15.825 43.3102 15.825C43.0307 14.1033 42.7587 12.427 42.4867 10.7496ZM46.3624 20.4438C45.5917 20.4438 44.8657 20.4438 44.1245 20.4438C43.97 19.5803 43.8041 18.7409 43.677 17.895C43.6231 17.5371 43.4917 17.3525 43.1055 17.3925C42.9138 17.4128 42.7183 17.3963 42.5249 17.3963C41.347 17.3963 41.3422 17.3952 41.1111 18.4784C41.0411 18.8075 41.0104 19.1441 40.9533 19.4763C40.9005 19.7852 40.8364 20.0924 40.7702 20.4348C40.0404 20.4348 39.2955 20.4348 38.5005 20.4348C39.3757 16.1066 40.2456 11.8003 41.1246 7.45349C41.9788 7.45349 42.8497 7.45349 43.7362 7.45349C44.6087 11.7678 45.4796 16.0768 46.3624 20.4438Z" fill="white"/>
<path fill-rule="evenodd" clip-rule="evenodd" d="M72.0001 13.0016C72.8586 12.961 73.9111 13.2128 74.2164 12.3349C74.4998 11.521 74.5084 10.4399 74.1976 9.64465C73.8647 8.78968 72.8139 9.10169 72.0001 9.09903C72.0001 10.4063 72.0001 11.6575 72.0001 13.0016ZM69.5684 7.41416C71.0732 7.41416 72.5468 7.29576 73.9924 7.44403C75.8403 7.63337 76.5513 8.58061 76.7344 10.4319C76.8082 11.17 76.7419 11.9759 76.5136 12.6789C76.017 14.2086 74.9608 14.5259 73.3951 14.7003C72.9524 14.7499 72.4999 14.7083 71.9834 14.7083C71.9834 16.6396 71.9834 18.5234 71.9834 20.4371C71.1475 20.4371 70.3816 20.4371 69.5684 20.4371C69.5684 16.1217 69.5684 11.8085 69.5684 7.41416Z" fill="white"/>
<path fill-rule="evenodd" clip-rule="evenodd" d="M103.891 16.6458C104.629 16.5093 105.327 16.3802 106.028 16.2512C106.1 16.7413 106.076 17.2368 106.26 17.6395C106.448 18.0518 106.771 18.4891 107.156 18.7062C107.794 19.0667 108.475 18.5611 108.568 17.839C108.753 16.4096 107.793 15.6442 106.888 14.8218C106.121 14.1252 105.314 13.4553 104.649 12.6713C103.688 11.539 103.657 9.58744 104.6 8.43967C104.988 7.96765 105.625 7.6247 106.217 7.40283C107.595 6.88547 109.204 7.26682 109.919 8.36286C110.373 9.05782 110.541 9.93572 110.856 10.7811C110.001 10.923 109.319 11.0366 108.637 11.1502C108.56 10.6888 108.507 10.2957 108.428 9.90692C108.32 9.36663 107.791 8.91542 107.342 8.95969C106.757 9.01729 106.278 9.51544 106.229 10.0888C106.144 11.0931 106.778 11.6963 107.428 12.3225C108.418 13.2766 109.501 14.1764 110.302 15.2735C111.487 16.8971 111.142 19.8892 108.647 20.4801C106.504 20.9884 104.471 20.3804 104.036 17.5723C103.994 17.3019 103.952 17.032 103.891 16.6458Z" fill="white"/>
<path fill-rule="evenodd" clip-rule="evenodd" d="M62.9308 16.2528C63.0665 16.8417 63.1559 17.3772 63.3159 17.8913C63.5168 18.5345 64.1022 18.9009 64.6613 18.7969C65.2554 18.6865 65.5203 18.2721 65.5381 17.5185C65.5688 16.272 64.6801 15.5904 63.8889 14.8565C63.2528 14.2661 62.5403 13.752 61.9371 13.1317C60.7618 11.9236 60.5793 9.93528 61.4911 8.51389C61.6871 8.20774 62.006 7.96293 62.3065 7.74053C63.1904 7.0861 65.6652 7.1053 66.4403 7.84933C67.1108 8.49255 67.6176 9.611 67.5562 10.8164C66.9035 10.9284 66.248 11.0409 65.5941 11.1529C65.5139 10.691 65.46 10.3198 65.3846 9.95288C65.2602 9.35232 64.8234 8.94857 64.3317 8.9619C63.7467 8.97684 63.234 9.48352 63.1898 10.1187C63.1295 10.9988 63.6196 11.6025 64.2272 12.1684C65.1891 13.065 66.1887 13.9354 67.0489 14.9221C68.2187 16.264 68.1385 18.6167 66.9509 19.7378C65.7568 20.8648 64.3236 20.8424 62.8947 20.3261C61.6091 19.862 61.1626 18.7495 60.9929 17.502C60.959 17.2513 60.9525 16.9963 60.9256 16.6459C61.5735 16.519 62.2457 16.3872 62.9308 16.2528Z" fill="white"/>
<path fill-rule="evenodd" clip-rule="evenodd" d="M100.825 20.4531C99.9997 20.4531 99.2909 20.4531 98.5116 20.4531C98.5116 16.7303 98.5116 13.0112 98.5116 9.23027C97.7435 9.23027 97.0444 9.23027 96.2925 9.23027C96.2925 8.60891 96.2925 8.04996 96.2925 7.45154C98.5024 7.45154 100.711 7.45154 102.959 7.45154C102.959 8.01849 102.959 8.57958 102.959 9.18867C102.259 9.18867 101.576 9.18867 100.825 9.18867C100.825 12.9547 100.825 16.6737 100.825 20.4531Z" fill="white"/>
<path fill-rule="evenodd" clip-rule="evenodd" d="M125.798 7.44507C126.61 7.44507 127.377 7.44507 128.19 7.44507C128.19 11.2207 128.19 14.9659 128.19 18.7815C129.275 18.7815 130.317 18.7815 131.398 18.7815C131.398 19.3693 131.398 19.8877 131.398 20.437C129.532 20.437 127.688 20.437 125.798 20.437C125.798 16.1211 125.798 11.8074 125.798 7.44507Z" fill="white"/>
</svg>