<svg width="21" height="21" viewBox="0 0 21 21" fill="none" xmlns="http://www.w3.org/2000/svg">
<path fill-rule="evenodd" clip-rule="evenodd" d="M17.6393 18.0359H14.675V13.3944C14.675 12.2876 14.6546 10.8641 13.1336 10.8641C11.5902 10.8641 11.3533 12.0695 11.3533 13.3144V18.0359H8.3894V8.49171H11.2345V9.79578H11.2741C11.6701 9.04535 12.6378 8.25429 14.081 8.25429C17.0848 8.25429 17.6393 10.2311 17.6393 12.8006V18.0359ZM5.04621 7.18614C4.0954 7.18614 3.32596 6.4154 3.32596 5.46589C3.32596 4.51721 4.0954 3.74647 5.04621 3.74647C5.9944 3.74647 6.76514 4.51721 6.76514 5.46589C6.76514 6.4154 5.9944 7.18614 5.04621 7.18614ZM3.56226 18.0355H6.52874V8.49134H3.56226V18.0355ZM19.1166 0.993164H2.07338C1.25889 0.993164 0.597107 1.63873 0.597107 2.43438V19.5497C0.597107 20.3461 1.25889 20.9925 2.07338 20.9925H19.1166C19.9325 20.9925 20.5971 20.3461 20.5971 19.5497V2.43438C20.5971 1.63873 19.9325 0.993164 19.1166 0.993164Z" fill="#BABABA"/>
</svg>