<svg width="21" height="21" viewBox="0 0 17 17" fill="none" xmlns="http://www.w3.org/2000/svg">
<path fill-rule="evenodd" clip-rule="evenodd" d="M14.4801 13.6884H12.1086V9.97515C12.1086 9.08972 12.0923 7.9509 10.8755 7.9509C9.64078 7.9509 9.45124 8.91525 9.45124 9.91119V13.6884H7.08016V6.05301H9.35621V7.09627H9.38793C9.70475 6.49593 10.4789 5.86308 11.6334 5.86308C14.0365 5.86308 14.4801 7.44455 14.4801 9.50012V13.6884ZM4.40563 5.00923C3.64498 5.00923 3.02943 4.39264 3.02943 3.63304C3.02943 2.87409 3.64498 2.2575 4.40563 2.2575C5.16418 2.2575 5.78077 2.87409 5.78077 3.63304C5.78077 4.39264 5.16418 5.00923 4.40563 5.00923ZM3.21845 13.6884H5.59163V6.05301H3.21845V13.6884ZM15.6619 0.054718H2.02733C1.37574 0.054718 0.846313 0.571168 0.846313 1.20769V14.8999C0.846313 15.5371 1.37574 16.0542 2.02733 16.0542H15.6619C16.3147 16.0542 16.8463 15.5371 16.8463 14.8999V1.20769C16.8463 0.571168 16.3147 0.054718 15.6619 0.054718Z" fill="#393939"/>
</svg>