<svg width="21" height="21" viewBox="0 0 17 17" fill="none" xmlns="http://www.w3.org/2000/svg">
<path fill-rule="evenodd" clip-rule="evenodd" d="M15.2463 0.0541992H2.44631C1.56471 0.0541992 0.846313 0.772599 0.846313 1.6542V14.4542C0.846313 15.3358 1.56471 16.0542 2.44631 16.0542H15.2463C16.1279 16.0542 16.8463 15.3358 16.8463 14.4542V1.6542C16.8463 0.772599 16.1279 0.0541992 15.2463 0.0541992ZM5.96471 10.5358H4.20551C4.04631 10.5358 3.96471 10.3726 4.04631 10.2134L5.88711 6.8542V6.695L4.68711 4.6134C4.60551 4.4542 4.68711 4.295 4.84631 4.295H6.60551C6.68711 4.295 6.76471 4.295 6.76471 4.3726L8.12791 6.695V6.8542L6.12791 10.4542C6.12791 10.5358 6.04631 10.5358 5.96471 10.5358ZM13.6463 2.7726L10.1279 9.2542V9.4134L12.4463 13.4134C12.5279 13.5726 12.4463 13.7358 12.2871 13.7358H10.4463C10.3647 13.7358 10.2871 13.7358 10.2871 13.6542L7.88711 9.495V9.3358L11.5647 2.695C11.5647 2.4542 11.6463 2.4542 11.7279 2.4542H13.4871C13.5647 2.4542 13.7279 2.6134 13.6463 2.7726Z" fill="#393939"/>
</svg>